<?xml version="1.0" encoding="UTF-8"?>
<svg xmlns="http://www.w3.org/2000/svg" xmlns:xlink="http://www.w3.org/1999/xlink" width="3750" height="2250" viewBox="0 0 3750 2250">

<path fill-rule="evenodd" fill="rgb(88.671875%, 80.859375%, 70.117188%)" fill-opacity="1" d="M 132.289062 1265.613281 C 86.355469 1265.65625 41.066406 1273.890625 0 1289.65625 L 0 1695.136719 C 41.066406 1710.902344 86.355469 1719.132812 132.289062 1719.179688 C 178.125 1719.128906 223.316406 1710.929688 264.308594 1695.222656 C 297.144531 1729.289062 344.445312 1757.59375 401.449219 1777.28125 C 458.449219 1796.96875 523.140625 1807.347656 589.007812 1807.371094 C 643.75 1807.328125 697.808594 1800.132812 747.390625 1786.289062 C 773.007812 1839.550781 827.039062 1886.398438 901.320312 1919.75 C 975.601562 1953.105469 1066.089844 1971.148438 1159.109375 1971.160156 C 1258.070312 1971.148438 1353.980469 1950.734375 1430.519531 1913.378906 C 1484.550781 1951.34375 1570.378906 1983.457031 1677.941406 2005.964844 C 1785.519531 2028.46875 1910.378906 2040.433594 2037.898438 2040.453125 C 2161.390625 2040.4375 2282.460938 2029.21875 2387.789062 2008.039062 C 2493.121094 1986.855469 2578.621094 1956.53125 2634.871094 1920.402344 C 2760.378906 1917.171875 2876.351562 1879.023438 2949.019531 1817.070312 C 3016.449219 1878.511719 3119.449219 1914.40625 3228.511719 1914.464844 C 3411.410156 1914.386719 3564.460938 1814.949219 3582.488281 1684.476562 C 3597.679688 1686.566406 3613.089844 1687.640625 3628.53125 1687.679688 C 3670.949219 1687.523438 3712.671875 1679.597656 3750 1664.601562 L 3750 1326.019531 C 3712.621094 1311.1875 3670.898438 1303.421875 3628.53125 1303.410156 C 3519.679688 1303.4375 3422.53125 1354.234375 3385.628906 1430.421875 C 3336.75 1413.175781 3282.988281 1404.207031 3228.511719 1404.203125 C 3108.800781 1404.238281 2997.128906 1447.40625 2931.328125 1519.085938 C 2854.160156 1462.3125 2739 1429.40625 2617.460938 1429.402344 C 2528.929688 1429.402344 2442.828125 1446.886719 2372.25 1479.195312 C 2301.660156 1511.5 2250.460938 1556.859375 2226.421875 1608.375 C 2165.191406 1602.484375 2101.710938 1599.488281 2037.898438 1599.488281 C 1866.398438 1599.53125 1701.460938 1621.15625 1576.96875 1659.921875 C 1555.578125 1603.425781 1502.570312 1552.945312 1426.628906 1516.777344 C 1350.691406 1480.609375 1256.351562 1460.902344 1159.109375 1460.898438 C 1080.191406 1460.90625 1002.800781 1473.902344 935.492188 1498.449219 C 907.1875 1457.511719 859.148438 1422.511719 797.460938 1397.882812 C 735.777344 1373.253906 663.226562 1360.105469 589.007812 1360.105469 C 521.585938 1360.128906 455.425781 1371 397.496094 1391.574219 C 347.5 1314.417969 244.75 1265.613281 132.289062 1265.613281 Z M 132.289062 1265.613281 "/>
<path fill-rule="evenodd" fill="rgb(91.014099%, 85.15625%, 76.951599%)" fill-opacity="1" d="M 3719.878906 1424.296875 C 3590.390625 1424.296875 3466.21875 1440.226562 3374.660156 1468.582031 C 3283.101562 1496.933594 3231.660156 1535.390625 3231.660156 1575.488281 C 3231.738281 1577.59375 3231.96875 1579.699219 3232.328125 1581.804688 C 3231.058594 1581.796875 3229.789062 1581.789062 3228.511719 1581.789062 C 3078.78125 1581.824219 2939.46875 1612.683594 2859.191406 1663.605469 C 2786.121094 1643.09375 2701.128906 1632.1875 2614.308594 1632.183594 C 2510.109375 1632.195312 2409.109375 1647.902344 2328.269531 1676.664062 C 2247.429688 1705.421875 2191.691406 1745.480469 2170.410156 1790.105469 C 2135.421875 1785.640625 2099.339844 1783.378906 2063.101562 1783.375 C 1938.75 1783.375 1821.039062 1809.917969 1742.699219 1855.621094 C 1711.640625 1815.386719 1660.78125 1781.183594 1596.308594 1757.171875 C 1531.839844 1733.160156 1456.550781 1720.378906 1379.601562 1720.378906 C 1330.960938 1720.421875 1282.75 1725.570312 1237.371094 1735.574219 C 1206.679688 1680.28125 1157.46875 1633.433594 1095.589844 1600.59375 C 1033.699219 1567.753906 961.738281 1550.292969 888.234375 1550.289062 C 813.476562 1550.320312 740.355469 1568.398438 677.824219 1602.316406 C 648.75 1555.378906 598.3125 1515.113281 533.054688 1486.742188 C 467.792969 1458.371094 390.71875 1443.199219 311.828125 1443.199219 C 189.453125 1443.445312 74.210938 1480.09375 0 1542.367188 L 0 1847.988281 C 74.210938 1910.265625 189.453125 1946.914062 311.828125 1947.160156 C 380.636719 1947.113281 448.226562 1935.523438 507.855469 1913.550781 C 520.976562 1989.328125 566.660156 2058.648438 636.53125 2108.789062 C 706.398438 2158.933594 795.765625 2186.539062 888.234375 2186.542969 C 973.242188 2186.492188 1055.828125 2163.109375 1123.070312 2120.054688 C 1194.710938 2154.804688 1285.621094 2173.902344 1379.601562 2173.941406 C 1509.839844 2173.917969 1631.769531 2137.382812 1705.859375 2076.175781 C 1742.03125 2105.878906 1794.089844 2130.550781 1856.800781 2147.714844 C 1919.511719 2164.875 1990.660156 2173.921875 2063.101562 2173.941406 C 2157.988281 2173.941406 2249.980469 2158.460938 2323.570312 2130.109375 C 2397.160156 2101.757812 2447.859375 2062.269531 2467.121094 2018.292969 C 2514.488281 2025.410156 2564.21875 2029.046875 2614.308594 2029.054688 C 2700.679688 2029.035156 2785.238281 2018.226562 2858.050781 1997.898438 C 2930.859375 1977.574219 2988.890625 1948.574219 3025.308594 1914.3125 C 3087.988281 1927.582031 3157.710938 1934.53125 3228.511719 1934.5625 C 3344.628906 1934.5625 3455.988281 1915.976562 3538.089844 1882.898438 C 3620.199219 1849.820312 3666.328125 1804.957031 3666.328125 1758.175781 C 3666.320312 1747.199219 3663.769531 1736.246094 3658.710938 1725.460938 C 3679 1726.261719 3699.429688 1726.667969 3719.878906 1726.675781 C 3729.929688 1726.570312 3739.980469 1726.363281 3750 1726.066406 L 3750 1424.621094 C 3739.96875 1424.417969 3729.929688 1424.308594 3719.878906 1424.296875 Z M 3719.878906 1424.296875 "/>
<path fill-rule="evenodd" fill="rgb(100%, 90.234375%, 83.59375%)" fill-opacity="1" d="M 3750 1473.074219 C 3636.628906 1498.246094 3545.910156 1549.304688 3498.941406 1614.371094 C 3440.128906 1596.570312 3378.621094 1587.492188 3316.699219 1587.480469 C 3208.839844 1587.539062 3103.109375 1615.105469 3011.289062 1667.113281 C 2919.46875 1719.125 2845.148438 1793.53125 2796.628906 1882.054688 C 2707.601562 1829.964844 2598 1801.675781 2485.160156 1801.667969 C 2316.328125 1801.746094 2158.621094 1864.972656 2064.5 1970.308594 C 1981.988281 1895.136719 1863.339844 1852.074219 1738.671875 1852.0625 C 1606.710938 1852.148438 1481.941406 1900.449219 1399.53125 1983.351562 C 1317.28125 1862.519531 1172.820312 1789.078125 1017.378906 1789.066406 C 900.328125 1789.15625 787.914062 1830.984375 703.949219 1905.6875 C 673.730469 1810.121094 611.578125 1726.300781 526.738281 1666.695312 C 441.898438 1607.09375 338.90625 1574.890625 233.082031 1574.882812 C 151.597656 1575.292969 71.5 1594.792969 0 1631.625 L 0 2250 L 3750 2250 Z M 3750 1473.074219 "/>
<path fill-rule="evenodd" fill="rgb(99.609375%, 96.875%, 99.21875%)" fill-opacity="1" d="M 143.480469 98.890625 C 143.480469 103.058594 139.535156 106.441406 134.671875 106.441406 C 129.804688 106.441406 125.859375 103.058594 125.859375 98.890625 C 125.859375 94.710938 129.804688 91.328125 134.671875 91.328125 C 139.535156 91.328125 143.480469 94.710938 143.480469 98.890625 Z M 143.480469 98.890625 "/>
<path fill-rule="evenodd" fill="rgb(99.609375%, 96.875%, 99.21875%)" fill-opacity="1" d="M 1980.871094 125.269531 C 1980.871094 129.441406 1976.929688 132.820312 1972.058594 132.820312 C 1969.71875 132.820312 1967.480469 132.03125 1965.828125 130.609375 C 1964.179688 129.191406 1963.25 127.269531 1963.25 125.269531 C 1963.25 123.269531 1964.179688 121.351562 1965.828125 119.929688 C 1967.480469 118.519531 1969.71875 117.71875 1972.058594 117.71875 C 1976.929688 117.71875 1980.871094 121.101562 1980.871094 125.269531 Z M 1980.871094 125.269531 "/>
<path fill-rule="evenodd" fill="rgb(99.609375%, 96.875%, 99.21875%)" fill-opacity="1" d="M 3317.148438 84.230469 C 3317.148438 88.398438 3313.210938 91.78125 3308.339844 91.78125 C 3306 91.78125 3303.761719 90.980469 3302.109375 89.570312 C 3300.460938 88.148438 3299.53125 86.230469 3299.53125 84.230469 C 3299.53125 82.21875 3300.460938 80.308594 3302.109375 78.890625 C 3303.761719 77.46875 3306 76.679688 3308.339844 76.679688 C 3313.210938 76.679688 3317.148438 80.058594 3317.148438 84.230469 Z M 3317.148438 84.230469 "/>
<path fill-rule="evenodd" fill="rgb(99.609375%, 96.875%, 99.21875%)" fill-opacity="1" d="M 3484.191406 312.898438 C 3484.191406 314.910156 3483.261719 316.820312 3481.609375 318.238281 C 3479.949219 319.660156 3477.71875 320.449219 3475.378906 320.449219 C 3470.511719 320.449219 3466.570312 317.070312 3466.570312 312.898438 C 3466.570312 308.730469 3470.511719 305.351562 3475.378906 305.351562 C 3477.71875 305.351562 3479.949219 306.140625 3481.609375 307.558594 C 3483.261719 308.980469 3484.191406 310.898438 3484.191406 312.898438 Z M 3484.191406 312.898438 "/>
<path fill-rule="evenodd" fill="rgb(99.609375%, 96.875%, 99.21875%)" fill-opacity="1" d="M 2983.078125 128.199219 C 2983.078125 132.371094 2979.140625 135.75 2974.269531 135.75 C 2969.410156 135.75 2965.460938 132.371094 2965.460938 128.199219 C 2965.460938 124.03125 2969.410156 120.648438 2974.269531 120.648438 C 2979.140625 120.648438 2983.078125 124.03125 2983.078125 128.199219 Z M 2983.078125 128.199219 "/>
<path fill-rule="evenodd" fill="rgb(99.609375%, 96.875%, 99.21875%)" fill-opacity="1" d="M 2816.050781 348.078125 C 2816.050781 352.25 2812.101562 355.628906 2807.230469 355.628906 C 2802.371094 355.628906 2798.429688 352.25 2798.429688 348.078125 C 2798.429688 343.910156 2802.371094 340.53125 2807.230469 340.53125 C 2809.570312 340.53125 2811.808594 341.320312 2813.46875 342.738281 C 2815.121094 344.160156 2816.050781 346.078125 2816.050781 348.078125 Z M 2816.050781 348.078125 "/>
<path fill-rule="evenodd" fill="rgb(99.609375%, 96.875%, 99.21875%)" fill-opacity="1" d="M 2481.980469 207.359375 C 2481.980469 211.53125 2478.03125 214.910156 2473.160156 214.910156 C 2470.828125 214.910156 2468.589844 214.121094 2466.929688 212.699219 C 2465.28125 211.28125 2464.359375 209.359375 2464.359375 207.359375 C 2464.359375 205.359375 2465.28125 203.441406 2466.929688 202.019531 C 2468.589844 200.601562 2470.828125 199.808594 2473.160156 199.808594 C 2478.03125 199.808594 2481.980469 203.191406 2481.980469 207.359375 Z M 2481.980469 207.359375 "/>
<path fill-rule="evenodd" fill="rgb(99.609375%, 96.875%, 99.21875%)" fill-opacity="1" d="M 2147.910156 339.289062 C 2147.910156 343.460938 2143.960938 346.839844 2139.089844 346.839844 C 2136.761719 346.839844 2134.519531 346.039062 2132.859375 344.628906 C 2131.210938 343.210938 2130.289062 341.289062 2130.289062 339.289062 C 2130.289062 337.28125 2131.210938 335.359375 2132.859375 333.941406 C 2134.519531 332.53125 2136.761719 331.730469 2139.089844 331.730469 C 2143.960938 331.730469 2147.910156 335.121094 2147.910156 339.289062 Z M 2147.910156 339.289062 "/>
<path fill-rule="evenodd" fill="rgb(99.609375%, 96.875%, 99.21875%)" fill-opacity="1" d="M 1479.761719 163.378906 C 1479.761719 165.390625 1478.839844 167.308594 1477.179688 168.71875 C 1475.53125 170.140625 1473.289062 170.929688 1470.949219 170.929688 C 1466.089844 170.929688 1462.140625 167.558594 1462.140625 163.378906 C 1462.140625 159.210938 1466.089844 155.828125 1470.949219 155.828125 C 1473.289062 155.828125 1475.53125 156.628906 1477.179688 158.039062 C 1478.839844 159.460938 1479.761719 161.378906 1479.761719 163.378906 Z M 1479.761719 163.378906 "/>
<path fill-rule="evenodd" fill="rgb(99.609375%, 96.875%, 99.21875%)" fill-opacity="1" d="M 978.65625 333.421875 C 978.65625 335.429688 977.730469 337.351562 976.078125 338.769531 C 974.425781 340.179688 972.183594 340.980469 969.847656 340.980469 C 964.980469 340.980469 961.035156 337.589844 961.035156 333.421875 C 961.035156 329.25 964.980469 325.871094 969.847656 325.871094 C 972.183594 325.871094 974.425781 326.671875 976.078125 328.078125 C 977.730469 329.5 978.65625 331.421875 978.65625 333.421875 Z M 978.65625 333.421875 "/>
<path fill-rule="evenodd" fill="rgb(99.609375%, 96.875%, 99.21875%)" fill-opacity="1" d="M 471.445312 229.308594 C 471.445312 231.308594 470.519531 233.230469 468.867188 234.648438 C 467.214844 236.070312 464.972656 236.859375 462.636719 236.859375 C 457.769531 236.859375 453.824219 233.480469 453.824219 229.308594 C 453.824219 225.140625 457.769531 221.761719 462.636719 221.761719 C 464.972656 221.761719 467.214844 222.558594 468.867188 223.96875 C 470.519531 225.390625 471.445312 227.308594 471.445312 229.308594 Z M 471.445312 229.308594 "/>
<path fill-rule="evenodd" fill="rgb(99.609375%, 96.875%, 99.21875%)" fill-opacity="1" d="M 115.230469 397.78125 C 115.230469 401.941406 111.285156 405.328125 106.417969 405.328125 C 101.554688 405.328125 97.609375 401.941406 97.609375 397.78125 C 97.609375 395.769531 98.539062 393.851562 100.191406 392.441406 C 101.84375 391.019531 104.082031 390.21875 106.417969 390.21875 C 108.757812 390.21875 110.996094 391.019531 112.648438 392.441406 C 114.300781 393.851562 115.230469 395.769531 115.230469 397.78125 Z M 115.230469 397.78125 "/>
<path fill-rule="evenodd" fill="rgb(99.609375%, 96.875%, 99.21875%)" fill-opacity="1" d="M 274.609375 492.539062 C 274.609375 494.539062 273.679688 496.460938 272.027344 497.878906 C 270.375 499.289062 268.136719 500.089844 265.796875 500.089844 C 263.460938 500.089844 261.21875 499.289062 259.566406 497.878906 C 257.917969 496.460938 256.988281 494.539062 256.988281 492.539062 C 256.988281 490.53125 257.917969 488.609375 259.566406 487.199219 C 261.21875 485.78125 263.460938 484.988281 265.796875 484.988281 C 268.136719 484.988281 270.375 485.78125 272.027344 487.199219 C 273.679688 488.609375 274.609375 490.53125 274.609375 492.539062 Z M 274.609375 492.539062 "/>
<path fill-rule="evenodd" fill="rgb(99.609375%, 96.875%, 99.21875%)" fill-opacity="1" d="M 894.015625 116.699219 C 894.015625 120.871094 890.070312 124.25 885.207031 124.25 C 882.871094 124.25 880.628906 123.460938 878.976562 122.039062 C 877.324219 120.628906 876.394531 118.710938 876.394531 116.699219 C 876.394531 114.699219 877.324219 112.78125 878.976562 111.359375 C 880.628906 109.941406 882.871094 109.148438 885.207031 109.148438 C 890.070312 109.148438 894.015625 112.53125 894.015625 116.699219 Z M 894.015625 116.699219 "/>
<path fill-rule="evenodd" fill="rgb(99.609375%, 96.875%, 99.21875%)" fill-opacity="1" d="M 1646.800781 318.769531 C 1646.800781 320.769531 1645.871094 322.691406 1644.21875 324.109375 C 1642.570312 325.519531 1640.320312 326.320312 1637.988281 326.320312 C 1633.121094 326.320312 1629.179688 322.941406 1629.179688 318.769531 C 1629.179688 314.589844 1633.121094 311.210938 1637.988281 311.210938 C 1640.320312 311.210938 1642.570312 312.011719 1644.21875 313.429688 C 1645.871094 314.839844 1646.800781 316.761719 1646.800781 318.769531 Z M 1646.800781 318.769531 "/>
<path fill-rule="evenodd" fill="rgb(99.609375%, 96.875%, 99.21875%)" fill-opacity="1" d="M 1813.828125 245.46875 C 1813.828125 249.640625 1809.890625 253.019531 1805.019531 253.019531 C 1802.691406 253.019531 1800.441406 252.230469 1798.789062 250.808594 C 1797.140625 249.390625 1796.21875 247.480469 1796.21875 245.46875 C 1796.21875 243.46875 1797.140625 241.550781 1798.789062 240.128906 C 1800.441406 238.710938 1802.691406 237.921875 1805.019531 237.921875 C 1809.890625 237.921875 1813.828125 241.300781 1813.828125 245.46875 Z M 1813.828125 245.46875 "/>
<path fill-rule="evenodd" fill="rgb(99.609375%, 96.875%, 99.21875%)" fill-opacity="1" d="M 1312.730469 224.949219 C 1312.730469 226.949219 1311.800781 228.871094 1310.148438 230.289062 C 1308.5 231.710938 1306.25 232.5 1303.921875 232.5 C 1299.050781 232.5 1295.109375 229.121094 1295.109375 224.949219 C 1295.109375 220.78125 1299.050781 217.398438 1303.921875 217.398438 C 1306.25 217.398438 1308.5 218.191406 1310.148438 219.609375 C 1311.800781 221.03125 1312.730469 222.941406 1312.730469 224.949219 Z M 1312.730469 224.949219 "/>
<path fill-rule="evenodd" fill="rgb(99.609375%, 96.875%, 99.21875%)" fill-opacity="1" d="M 3150.121094 274.789062 C 3150.121094 278.960938 3146.171875 282.339844 3141.308594 282.339844 C 3136.441406 282.339844 3132.5 278.960938 3132.5 274.789062 C 3132.5 270.621094 3136.441406 267.238281 3141.308594 267.238281 C 3146.171875 267.238281 3150.121094 270.621094 3150.121094 274.789062 Z M 3150.121094 274.789062 "/>
<path fill-rule="evenodd" fill="rgb(99.609375%, 96.875%, 99.21875%)" fill-opacity="1" d="M 2649.011719 116.480469 C 2649.011719 118.480469 2648.078125 120.398438 2646.429688 121.820312 C 2644.78125 123.230469 2642.539062 124.03125 2640.199219 124.03125 C 2635.339844 124.03125 2631.390625 120.648438 2631.390625 116.480469 C 2631.390625 112.308594 2635.339844 108.929688 2640.199219 108.929688 C 2642.539062 108.929688 2644.78125 109.71875 2646.429688 111.140625 C 2648.078125 112.550781 2649.011719 114.46875 2649.011719 116.480469 Z M 2649.011719 116.480469 "/>
<path fill-rule="evenodd" fill="rgb(99.609375%, 96.875%, 99.21875%)" fill-opacity="1" d="M 2314.941406 151.660156 C 2314.941406 155.828125 2311 159.210938 2306.128906 159.210938 C 2303.789062 159.210938 2301.550781 158.410156 2299.898438 157 C 2298.25 155.578125 2297.320312 153.660156 2297.320312 151.660156 C 2297.320312 149.648438 2298.25 147.730469 2299.898438 146.320312 C 2301.550781 144.898438 2303.789062 144.109375 2306.128906 144.109375 C 2311 144.109375 2314.941406 147.480469 2314.941406 151.660156 Z M 2314.941406 151.660156 "/>
<path fill-rule="evenodd" fill="rgb(99.609375%, 96.875%, 99.21875%)" fill-opacity="1" d="M 719.773438 270.871094 C 721.332031 274.058594 607.105469 302.488281 479.574219 364.910156 C 352.042969 427.320312 259.5 500.070312 257.941406 496.878906 C 256.378906 493.691406 346.390625 415.769531 473.921875 353.359375 C 601.453125 290.949219 718.210938 267.679688 719.773438 270.871094 Z M 719.773438 270.871094 "/>
<path fill-rule="evenodd" fill="rgb(99.609375%, 96.875%, 99.21875%)" fill-opacity="1" d="M 3216.359375 725.941406 C 3216.359375 730.109375 3212.421875 733.488281 3207.558594 733.488281 C 3205.21875 733.488281 3202.980469 732.691406 3201.320312 731.28125 C 3199.671875 729.859375 3198.738281 727.941406 3198.738281 725.941406 C 3198.738281 723.929688 3199.671875 722.011719 3201.320312 720.601562 C 3202.980469 719.179688 3205.21875 718.378906 3207.558594 718.378906 C 3212.421875 718.378906 3216.359375 721.769531 3216.359375 725.941406 Z M 3216.359375 725.941406 "/>
<path fill-rule="evenodd" fill="rgb(99.609375%, 96.875%, 99.21875%)" fill-opacity="1" d="M 3664.769531 504.648438 C 3666.339844 507.839844 3552.109375 536.28125 3424.570312 598.691406 C 3297.050781 661.109375 3204.5 733.859375 3202.941406 730.671875 C 3201.378906 727.480469 3291.390625 649.558594 3418.929688 587.148438 C 3546.460938 524.730469 3663.21875 501.460938 3664.769531 504.648438 Z M 3664.769531 504.648438 "/>
</svg>
